<svg xmlns="http://www.w3.org/2000/svg" viewBox="0 0 448 447.98"><defs><style>.cls-1{fill:#fff;fill-rule:evenodd;}</style></defs><g id="Layer_2" data-name="Layer 2"><g id="Layer_1-2" data-name="Layer 1"><path class="cls-1" d="M224,0C100.3,0,0,102.8,0,229.7,0,331.2,64.2,417.2,153.2,447.6c11.2,2.1,15.3-5,15.3-11.1,0-5.5-.2-19.9-.3-39.1-62.3,13.9-75.5-30.8-75.5-30.8C82.5,340.1,67.8,333,67.8,333c-20.3-14.3,1.5-14,1.5-14,22.5,1.6,34.3,23.7,34.3,23.7,20,35.1,52.4,25,65.2,19.1,2-14.8,7.8-25,14.2-30.7-49.7-5.8-102-25.5-102-113.5,0-25.1,8.7-45.6,23-61.6-2.3-5.8-10-29.2,2.2-60.8,0,0,18.8-6.2,61.6,23.5a208.21,208.21,0,0,1,112.2,0c42.8-29.7,61.5-23.5,61.5-23.5,12.2,31.6,4.5,55,2.2,60.8,14.3,16.1,23,36.6,23,61.6,0,88.2-52.4,107.6-102.3,113.3,8,7.1,15.2,21.1,15.2,42.5,0,30.7-.3,55.5-.3,63,0,6.1,4,13.3,15.4,11C383.9,417.1,448,331.1,448,229.7,448,102.8,347.7,0,224,0Z"/></g></g></svg>