<svg xmlns="http://www.w3.org/2000/svg" viewBox="0 0 16 16"><defs><style>.cls-1{fill:#fff;}</style></defs><g id="Layer_2" data-name="Layer 2"><g id="Layer_1-2" data-name="Layer 1"><path class="cls-1" d="M13.75,0H2.25A2.25,2.25,0,0,0,0,2.25v11.5A2.25,2.25,0,0,0,2.25,16h11.5A2.25,2.25,0,0,0,16,13.75V2.25A2.25,2.25,0,0,0,13.75,0ZM5.33,12.78a.38.38,0,0,1-.08.19.42.42,0,0,1-.18.08H3.22A.42.42,0,0,1,3,13,.41.41,0,0,1,3,12.78V6.29A.42.42,0,0,1,3,6.11.42.42,0,0,1,3.22,6H5.07a.42.42,0,0,1,.18.08.33.33,0,0,1,.08.18ZM5,4.92a1.26,1.26,0,0,1-.4.28,1.32,1.32,0,0,1-.48.09,1.2,1.2,0,0,1-.89-.37A1.23,1.23,0,0,1,3,4.52,1.32,1.32,0,0,1,2.9,4a1.2,1.2,0,0,1,.36-.87,1.26,1.26,0,0,1,.89-.38,1.33,1.33,0,0,1,.48.1,1.26,1.26,0,0,1,.4.28A1.19,1.19,0,0,1,5.39,4,1.19,1.19,0,0,1,5,4.92Zm8.16,7.86a.16.16,0,0,1,0,.1.24.24,0,0,1-.06.09L13,13a.29.29,0,0,1-.1,0H11a.42.42,0,0,1-.18-.08.41.41,0,0,1-.08-.19v-4A1.45,1.45,0,0,0,10.6,8a1,1,0,0,0-.72-.24A1.1,1.1,0,0,0,9,8.18a2,2,0,0,0-.26,1.09v3.51a.3.3,0,0,1,0,.1.24.24,0,0,1-.06.09l-.08,0a.38.38,0,0,1-.1,0H6.58A.42.42,0,0,1,6.4,13a.41.41,0,0,1-.08-.19V6.29a.42.42,0,0,1,.08-.18A.42.42,0,0,1,6.58,6H8.37a.32.32,0,0,1,.16,0s.06.06.08.14v.1l0,0v.16a2.5,2.5,0,0,1,1.83-.64,3,3,0,0,1,2,.62,2.47,2.47,0,0,1,.72,1.91Z"/></g></g></svg>